<svg width="204" height="27" viewBox="0 0 204 27" fill="none" xmlns="http://www.w3.org/2000/svg">
<path d="M33.7265 18.1355H8.02794V25.5868H33.7265V18.1355Z" stroke="#283A50" stroke-width="2" stroke-miterlimit="10"/>
<path d="M33.7265 13.6266H8.02794V18.1355H33.7265V13.6266Z" stroke="#283A50" stroke-width="2" stroke-miterlimit="10"/>
<path d="M8.40897 3H33.3666C35.674 3 37.558 4.884 37.558 7.19136V13.6478H4.21761V7.19136C4.21761 4.884 6.1016 3 8.40897 3Z" stroke="#283A50" stroke-width="2" stroke-miterlimit="10"/>
<path d="M8.02793 25.608H1.5292L1.5292 13.3726C1.5292 12.3141 2.39711 11.4462 3.45554 11.4462H6.12277C7.18119 11.4462 8.0491 12.3141 8.0491 13.3726L8.0491 25.608H8.02793Z" fill="white" stroke="#283A50" stroke-width="2" stroke-miterlimit="10"/>
<path d="M40.2464 25.608H33.7477V13.3726C33.7477 12.3141 34.6156 11.4462 35.674 11.4462H38.3412C39.3997 11.4462 40.2676 12.3141 40.2676 13.3726V25.608H40.2464Z" fill="white" stroke="#283A50" stroke-width="2" stroke-miterlimit="10"/>
<path d="M20.8772 3V13.6266" stroke="#283A50" stroke-width="2" stroke-miterlimit="10"/>
<path d="M55.6478 12.64H62.3878V15.16H55.6478V12.64ZM55.8878 18.4H63.5078V21H52.6678V7H63.2478V9.6H55.8878V18.4ZM70.6858 21.24C69.5658 21.24 68.4924 21.0933 67.4658 20.8C66.4391 20.4933 65.6124 20.1 64.9858 19.62L66.0858 17.18C66.6858 17.6067 67.3924 17.96 68.2058 18.24C69.0324 18.5067 69.8658 18.64 70.7058 18.64C71.3458 18.64 71.8591 18.58 72.2458 18.46C72.6458 18.3267 72.9391 18.1467 73.1258 17.92C73.3124 17.6933 73.4058 17.4333 73.4058 17.14C73.4058 16.7667 73.2591 16.4733 72.9658 16.26C72.6724 16.0333 72.2858 15.8533 71.8058 15.72C71.3258 15.5733 70.7924 15.44 70.2058 15.32C69.6324 15.1867 69.0524 15.0267 68.4658 14.84C67.8924 14.6533 67.3658 14.4133 66.8858 14.12C66.4058 13.8267 66.0124 13.44 65.7058 12.96C65.4124 12.48 65.2658 11.8667 65.2658 11.12C65.2658 10.32 65.4791 9.59333 65.9058 8.94C66.3458 8.27333 66.9991 7.74667 67.8658 7.36C68.7458 6.96 69.8458 6.76 71.1658 6.76C72.0458 6.76 72.9124 6.86667 73.7658 7.08C74.6191 7.28 75.3724 7.58667 76.0258 8L75.0258 10.46C74.3724 10.0867 73.7191 9.81333 73.0658 9.64C72.4124 9.45333 71.7724 9.36 71.1458 9.36C70.5191 9.36 70.0058 9.43333 69.6058 9.58C69.2058 9.72667 68.9191 9.92 68.7458 10.16C68.5724 10.3867 68.4858 10.6533 68.4858 10.96C68.4858 11.32 68.6324 11.6133 68.9258 11.84C69.2191 12.0533 69.6058 12.2267 70.0858 12.36C70.5658 12.4933 71.0924 12.6267 71.6658 12.76C72.2524 12.8933 72.8324 13.0467 73.4058 13.22C73.9924 13.3933 74.5258 13.6267 75.0058 13.92C75.4858 14.2133 75.8724 14.6 76.1658 15.08C76.4724 15.56 76.6258 16.1667 76.6258 16.9C76.6258 17.6867 76.4058 18.4067 75.9658 19.06C75.5258 19.7133 74.8658 20.24 73.9858 20.64C73.1191 21.04 72.0191 21.24 70.6858 21.24ZM81.5444 21V9.64H77.0644V7H89.2644V9.64H84.7844V21H81.5444ZM91.0077 21V7H94.2477V21H91.0077ZM97.5702 21V7H100.81V18.36H107.83V21H97.5702ZM116.206 21.24C115.099 21.24 114.073 21.06 113.126 20.7C112.193 20.34 111.379 19.8333 110.686 19.18C110.006 18.5267 109.473 17.76 109.086 16.88C108.713 16 108.526 15.04 108.526 14C108.526 12.96 108.713 12 109.086 11.12C109.473 10.24 110.013 9.47333 110.706 8.82C111.399 8.16667 112.213 7.66 113.146 7.3C114.079 6.94 115.093 6.76 116.186 6.76C117.293 6.76 118.306 6.94 119.226 7.3C120.159 7.66 120.966 8.16667 121.646 8.82C122.339 9.47333 122.879 10.24 123.266 11.12C123.653 11.9867 123.846 12.9467 123.846 14C123.846 15.04 123.653 16.0067 123.266 16.9C122.879 17.78 122.339 18.5467 121.646 19.2C120.966 19.84 120.159 20.34 119.226 20.7C118.306 21.06 117.299 21.24 116.206 21.24ZM116.186 18.48C116.813 18.48 117.386 18.3733 117.906 18.16C118.439 17.9467 118.906 17.64 119.306 17.24C119.706 16.84 120.013 16.3667 120.226 15.82C120.453 15.2733 120.566 14.6667 120.566 14C120.566 13.3333 120.453 12.7267 120.226 12.18C120.013 11.6333 119.706 11.16 119.306 10.76C118.919 10.36 118.459 10.0533 117.926 9.84C117.393 9.62667 116.813 9.52 116.186 9.52C115.559 9.52 114.979 9.62667 114.446 9.84C113.926 10.0533 113.466 10.36 113.066 10.76C112.666 11.16 112.353 11.6333 112.126 12.18C111.913 12.7267 111.806 13.3333 111.806 14C111.806 14.6533 111.913 15.26 112.126 15.82C112.353 16.3667 112.659 16.84 113.046 17.24C113.446 17.64 113.913 17.9467 114.446 18.16C114.979 18.3733 115.559 18.48 116.186 18.48ZM127.061 21V7H127.921L134.421 18.22H133.961L140.441 7H141.281L141.301 21H140.301L140.281 8.54H140.561L134.421 19.14H133.921L127.761 8.54H128.061V21H127.061ZM152.122 21.1C151.082 21.1 150.116 20.9267 149.222 20.58C148.342 20.22 147.569 19.72 146.902 19.08C146.249 18.4267 145.742 17.6733 145.382 16.82C145.022 15.9533 144.842 15.0133 144.842 14C144.842 12.9867 145.022 12.0533 145.382 11.2C145.742 10.3333 146.249 9.58 146.902 8.94C147.569 8.28667 148.342 7.78667 149.222 7.44C150.116 7.08 151.082 6.9 152.122 6.9C153.162 6.9 154.122 7.08 155.002 7.44C155.896 7.78667 156.669 8.28 157.322 8.92C157.976 9.56 158.482 10.3133 158.842 11.18C159.216 12.0333 159.402 12.9733 159.402 14C159.402 15.0267 159.216 15.9733 158.842 16.84C158.482 17.6933 157.976 18.44 157.322 19.08C156.669 19.72 155.896 20.22 155.002 20.58C154.122 20.9267 153.162 21.1 152.122 21.1ZM152.122 20.16C153.016 20.16 153.842 20.0067 154.602 19.7C155.362 19.3933 156.022 18.96 156.582 18.4C157.142 17.84 157.576 17.1867 157.882 16.44C158.202 15.6933 158.362 14.88 158.362 14C158.362 13.1067 158.202 12.2933 157.882 11.56C157.576 10.8133 157.142 10.16 156.582 9.6C156.022 9.04 155.362 8.60667 154.602 8.3C153.842 7.99333 153.016 7.84 152.122 7.84C151.229 7.84 150.402 7.99333 149.642 8.3C148.882 8.60667 148.216 9.04 147.642 9.6C147.082 10.16 146.642 10.8133 146.322 11.56C146.016 12.2933 145.862 13.1067 145.862 14C145.862 14.88 146.016 15.6933 146.322 16.44C146.642 17.1867 147.082 17.84 147.642 18.4C148.216 18.96 148.882 19.3933 149.642 19.7C150.402 20.0067 151.229 20.16 152.122 20.16ZM150.982 5.86L153.762 3.5H155.202L152.062 5.86H150.982ZM166.45 21L160.21 7H161.33L167.29 20.38H166.67L172.65 7H173.71L167.47 21H166.45ZM176.867 13.44H184.447V14.34H176.867V13.44ZM176.987 20.08H185.627V21H175.967V7H185.327V7.92H176.987V20.08ZM189.346 21V7H190.366V21H189.346ZM198.925 21.1C197.885 21.1 196.898 20.9267 195.965 20.58C195.045 20.22 194.331 19.76 193.825 19.2L194.285 18.44C194.765 18.9333 195.418 19.3533 196.245 19.7C197.085 20.0333 197.971 20.2 198.905 20.2C199.838 20.2 200.598 20.08 201.185 19.84C201.785 19.5867 202.225 19.2533 202.505 18.84C202.798 18.4267 202.945 17.9667 202.945 17.46C202.945 16.86 202.785 16.38 202.465 16.02C202.145 15.66 201.725 15.3733 201.205 15.16C200.685 14.9467 200.118 14.7667 199.505 14.62C198.891 14.4733 198.271 14.32 197.645 14.16C197.018 13.9867 196.445 13.7667 195.925 13.5C195.405 13.2333 194.985 12.8733 194.665 12.42C194.358 11.9533 194.205 11.3533 194.205 10.62C194.205 9.95333 194.378 9.34 194.725 8.78C195.071 8.22 195.611 7.76667 196.345 7.42C197.078 7.07333 198.018 6.9 199.165 6.9C199.938 6.9 200.698 7.01333 201.445 7.24C202.205 7.46667 202.851 7.77333 203.385 8.16L203.005 8.98C202.418 8.58 201.785 8.28667 201.105 8.1C200.438 7.9 199.791 7.8 199.165 7.8C198.271 7.8 197.531 7.92667 196.945 8.18C196.358 8.43333 195.925 8.77333 195.645 9.2C195.365 9.61333 195.225 10.08 195.225 10.6C195.225 11.2 195.378 11.68 195.685 12.04C196.005 12.4 196.425 12.6867 196.945 12.9C197.465 13.1133 198.038 13.2933 198.665 13.44C199.291 13.5867 199.911 13.7467 200.525 13.92C201.138 14.08 201.705 14.2933 202.225 14.56C202.745 14.8267 203.165 15.1867 203.485 15.64C203.805 16.0933 203.965 16.68 203.965 17.4C203.965 18.0533 203.785 18.6667 203.425 19.24C203.065 19.8 202.511 20.2533 201.765 20.6C201.031 20.9333 200.085 21.1 198.925 21.1Z" fill="black"/>
</svg>
